<?xml version="1.0" encoding="UTF-8" standalone="no"?>
<!DOCTYPE svg PUBLIC "-//W3C//DTD SVG 1.1//EN"
 "http://www.w3.org/Graphics/SVG/1.1/DTD/svg11.dtd">
<!-- Generated by graphviz version 2.46.0 (20210119.1425)
 -->
<!-- Title: dependencies Pages: 1 -->
<svg width="1909pt" height="284pt"
 viewBox="0.00 0.00 1909.00 284.00" xmlns="http://www.w3.org/2000/svg" xmlns:xlink="http://www.w3.org/1999/xlink">
<g id="graph0" class="graph" transform="scale(1 1) rotate(0) translate(4 280)">
<title>dependencies</title>
<polygon fill="white" stroke="transparent" points="-4,4 -4,-280 1905,-280 1905,4 -4,4"/>
<text text-anchor="start" x="929.51" y="-42.4" font-family="sans-serif" font-weight="bold" font-size="14.00">Legend</text>
<polygon fill="#ffffb3" stroke="transparent" points="716.5,-10 716.5,-30 736.5,-30 736.5,-10 716.5,-10"/>
<text text-anchor="start" x="740.13" y="-15.4" font-family="sans-serif" font-size="14.00"> &#160;Declarations</text>
<polygon fill="#8dd3c7" stroke="transparent" points="829.5,-10 829.5,-30 849.5,-30 849.5,-10 829.5,-10"/>
<text text-anchor="start" x="853.23" y="-15.4" font-family="sans-serif" font-size="14.00"> &#160;Module</text>
<polygon fill="#80b1d3" stroke="transparent" points="915.5,-10 915.5,-30 935.5,-30 935.5,-10 915.5,-10"/>
<text text-anchor="start" x="939.28" y="-15.4" font-family="sans-serif" font-size="14.00"> &#160;Bootstrap</text>
<polygon fill="#fdb462" stroke="transparent" points="1012.5,-10 1012.5,-30 1032.5,-30 1032.5,-10 1012.5,-10"/>
<text text-anchor="start" x="1036.17" y="-15.4" font-family="sans-serif" font-size="14.00"> &#160;Providers</text>
<polygon fill="#fb8072" stroke="transparent" points="1108.5,-10 1108.5,-30 1128.5,-30 1128.5,-10 1108.5,-10"/>
<text text-anchor="start" x="1132.23" y="-15.4" font-family="sans-serif" font-size="14.00"> &#160;Exports</text>
<g id="clust1" class="cluster">
<title>cluster_AppModule</title>
<polygon fill="none" stroke="black" stroke-dasharray="1,5" points="8,-70 8,-268 1893,-268 1893,-70 8,-70"/>
</g>
<g id="clust15" class="cluster">
<title>cluster_AppModule_imports</title>
<polygon fill="none" stroke="black" points="1741,-78 1741,-130 1885,-130 1885,-78 1741,-78"/>
</g>
<g id="clust17" class="cluster">
<title>cluster_AppModule_bootstrap</title>
<polygon fill="none" stroke="black" points="933,-208 933,-260 1057,-260 1057,-208 933,-208"/>
</g>
<g id="clust2" class="cluster">
<title>cluster_AppModule_declarations</title>
<polygon fill="none" stroke="black" points="16,-78 16,-130 1733,-130 1733,-78 16,-78"/>
</g>
<!-- AppComponent -->
<g id="node1" class="node">
<title>AppComponent</title>
<polygon fill="#ffffb3" stroke="black" points="1724.94,-122 1619.06,-122 1619.06,-86 1724.94,-86 1724.94,-122"/>
<text text-anchor="middle" x="1672" y="-99.8" font-family="Times,serif" font-size="14.00">AppComponent</text>
</g>
<!-- AppModule -->
<g id="node13" class="node">
<title>AppModule</title>
<polygon fill="#8dd3c7" stroke="black" points="1036.66,-187 1033.66,-191 1012.66,-191 1009.66,-187 953.34,-187 953.34,-151 1036.66,-151 1036.66,-187"/>
<text text-anchor="middle" x="995" y="-164.8" font-family="Times,serif" font-size="14.00">AppModule</text>
</g>
<!-- AppComponent&#45;&gt;AppModule -->
<g id="edge1" class="edge">
<title>AppComponent&#45;&gt;AppModule</title>
<path fill="none" stroke="black" d="M1672,-122.04C1672,-143.66 1672,-177 1672,-177 1672,-177 1046.84,-177 1046.84,-177"/>
<polygon fill="black" stroke="black" points="1046.84,-173.5 1036.84,-177 1046.84,-180.5 1046.84,-173.5"/>
</g>
<!-- DashComponent -->
<g id="node2" class="node">
<title>DashComponent</title>
<polygon fill="#ffffb3" stroke="black" points="1601.1,-122 1490.9,-122 1490.9,-86 1601.1,-86 1601.1,-122"/>
<text text-anchor="middle" x="1546" y="-99.8" font-family="Times,serif" font-size="14.00">DashComponent</text>
</g>
<!-- DashComponent&#45;&gt;AppModule -->
<g id="edge2" class="edge">
<title>DashComponent&#45;&gt;AppModule</title>
<path fill="none" stroke="black" d="M1546,-122.22C1546,-142.37 1546,-172 1546,-172 1546,-172 1046.87,-172 1046.87,-172"/>
<polygon fill="black" stroke="black" points="1046.87,-168.5 1036.87,-172 1046.87,-175.5 1046.87,-168.5"/>
</g>
<!-- FooterComponent -->
<g id="node3" class="node">
<title>FooterComponent</title>
<polygon fill="#ffffb3" stroke="black" points="1472.88,-122 1355.12,-122 1355.12,-86 1472.88,-86 1472.88,-122"/>
<text text-anchor="middle" x="1414" y="-99.8" font-family="Times,serif" font-size="14.00">FooterComponent</text>
</g>
<!-- FooterComponent&#45;&gt;AppModule -->
<g id="edge3" class="edge">
<title>FooterComponent&#45;&gt;AppModule</title>
<path fill="none" stroke="black" d="M1414,-122.22C1414,-140.83 1414,-167 1414,-167 1414,-167 1046.71,-167 1046.71,-167"/>
<polygon fill="black" stroke="black" points="1046.71,-163.5 1036.71,-167 1046.71,-170.5 1046.71,-163.5"/>
</g>
<!-- HeaderComponent -->
<g id="node4" class="node">
<title>HeaderComponent</title>
<polygon fill="#ffffb3" stroke="black" points="1336.74,-122 1215.26,-122 1215.26,-86 1336.74,-86 1336.74,-122"/>
<text text-anchor="middle" x="1276" y="-99.8" font-family="Times,serif" font-size="14.00">HeaderComponent</text>
</g>
<!-- HeaderComponent&#45;&gt;AppModule -->
<g id="edge4" class="edge">
<title>HeaderComponent&#45;&gt;AppModule</title>
<path fill="none" stroke="black" d="M1276,-122.03C1276,-139.06 1276,-162 1276,-162 1276,-162 1046.77,-162 1046.77,-162"/>
<polygon fill="black" stroke="black" points="1046.77,-158.5 1036.77,-162 1046.77,-165.5 1046.77,-158.5"/>
</g>
<!-- Home2Component -->
<g id="node5" class="node">
<title>Home2Component</title>
<polygon fill="#ffffb3" stroke="black" points="1197.05,-122 1074.95,-122 1074.95,-86 1197.05,-86 1197.05,-122"/>
<text text-anchor="middle" x="1136" y="-99.8" font-family="Times,serif" font-size="14.00">Home2Component</text>
</g>
<!-- Home2Component&#45;&gt;AppModule -->
<g id="edge5" class="edge">
<title>Home2Component&#45;&gt;AppModule</title>
<path fill="none" stroke="black" d="M1136,-122.24C1136,-137.57 1136,-157 1136,-157 1136,-157 1046.92,-157 1046.92,-157"/>
<polygon fill="black" stroke="black" points="1046.92,-153.5 1036.92,-157 1046.92,-160.5 1046.92,-153.5"/>
</g>
<!-- Home3Component -->
<g id="node6" class="node">
<title>Home3Component</title>
<polygon fill="#ffffb3" stroke="black" points="1056.05,-122 933.95,-122 933.95,-86 1056.05,-86 1056.05,-122"/>
<text text-anchor="middle" x="995" y="-99.8" font-family="Times,serif" font-size="14.00">Home3Component</text>
</g>
<!-- Home3Component&#45;&gt;AppModule -->
<g id="edge6" class="edge">
<title>Home3Component&#45;&gt;AppModule</title>
<path fill="none" stroke="black" d="M995,-122.11C995,-122.11 995,-140.99 995,-140.99"/>
<polygon fill="black" stroke="black" points="991.5,-140.99 995,-150.99 998.5,-140.99 991.5,-140.99"/>
</g>
<!-- Home4Component -->
<g id="node7" class="node">
<title>Home4Component</title>
<polygon fill="#ffffb3" stroke="black" points="915.05,-122 792.95,-122 792.95,-86 915.05,-86 915.05,-122"/>
<text text-anchor="middle" x="854" y="-99.8" font-family="Times,serif" font-size="14.00">Home4Component</text>
</g>
<!-- Home4Component&#45;&gt;AppModule -->
<g id="edge7" class="edge">
<title>Home4Component&#45;&gt;AppModule</title>
<path fill="none" stroke="black" d="M854,-122.24C854,-137.57 854,-157 854,-157 854,-157 943.08,-157 943.08,-157"/>
<polygon fill="black" stroke="black" points="943.08,-160.5 953.08,-157 943.08,-153.5 943.08,-160.5"/>
</g>
<!-- Home5Component -->
<g id="node8" class="node">
<title>Home5Component</title>
<polygon fill="#ffffb3" stroke="black" points="774.05,-122 651.95,-122 651.95,-86 774.05,-86 774.05,-122"/>
<text text-anchor="middle" x="713" y="-99.8" font-family="Times,serif" font-size="14.00">Home5Component</text>
</g>
<!-- Home5Component&#45;&gt;AppModule -->
<g id="edge8" class="edge">
<title>Home5Component&#45;&gt;AppModule</title>
<path fill="none" stroke="black" d="M713,-122.03C713,-139.06 713,-162 713,-162 713,-162 943.09,-162 943.09,-162"/>
<polygon fill="black" stroke="black" points="943.09,-165.5 953.09,-162 943.09,-158.5 943.09,-165.5"/>
</g>
<!-- HomeComponent -->
<g id="node9" class="node">
<title>HomeComponent</title>
<polygon fill="#ffffb3" stroke="black" points="633.55,-122 518.45,-122 518.45,-86 633.55,-86 633.55,-122"/>
<text text-anchor="middle" x="576" y="-99.8" font-family="Times,serif" font-size="14.00">HomeComponent</text>
</g>
<!-- HomeComponent&#45;&gt;AppModule -->
<g id="edge9" class="edge">
<title>HomeComponent&#45;&gt;AppModule</title>
<path fill="none" stroke="black" d="M576,-122.22C576,-140.83 576,-167 576,-167 576,-167 943.29,-167 943.29,-167"/>
<polygon fill="black" stroke="black" points="943.29,-170.5 953.29,-167 943.29,-163.5 943.29,-170.5"/>
</g>
<!-- LoginComponent -->
<g id="node10" class="node">
<title>LoginComponent</title>
<polygon fill="#ffffb3" stroke="black" points="500.28,-122 385.72,-122 385.72,-86 500.28,-86 500.28,-122"/>
<text text-anchor="middle" x="443" y="-99.8" font-family="Times,serif" font-size="14.00">LoginComponent</text>
</g>
<!-- LoginComponent&#45;&gt;AppModule -->
<g id="edge10" class="edge">
<title>LoginComponent&#45;&gt;AppModule</title>
<path fill="none" stroke="black" d="M443,-122.22C443,-142.37 443,-172 443,-172 443,-172 943.06,-172 943.06,-172"/>
<polygon fill="black" stroke="black" points="943.06,-175.5 953.06,-172 943.06,-168.5 943.06,-175.5"/>
</g>
<!-- PageNotFoundComponent -->
<g id="node11" class="node">
<title>PageNotFoundComponent</title>
<polygon fill="#ffffb3" stroke="black" points="367.82,-122 202.18,-122 202.18,-86 367.82,-86 367.82,-122"/>
<text text-anchor="middle" x="285" y="-99.8" font-family="Times,serif" font-size="14.00">PageNotFoundComponent</text>
</g>
<!-- PageNotFoundComponent&#45;&gt;AppModule -->
<g id="edge11" class="edge">
<title>PageNotFoundComponent&#45;&gt;AppModule</title>
<path fill="none" stroke="black" d="M285,-122.04C285,-143.66 285,-177 285,-177 285,-177 943.24,-177 943.24,-177"/>
<polygon fill="black" stroke="black" points="943.24,-180.5 953.24,-177 943.24,-173.5 943.24,-180.5"/>
</g>
<!-- RecoveryPassComponent -->
<g id="node12" class="node">
<title>RecoveryPassComponent</title>
<polygon fill="#ffffb3" stroke="black" points="183.86,-122 24.14,-122 24.14,-86 183.86,-86 183.86,-122"/>
<text text-anchor="middle" x="104" y="-99.8" font-family="Times,serif" font-size="14.00">RecoveryPassComponent</text>
</g>
<!-- RecoveryPassComponent&#45;&gt;AppModule -->
<g id="edge12" class="edge">
<title>RecoveryPassComponent&#45;&gt;AppModule</title>
<path fill="none" stroke="black" d="M104,-122.09C104,-145.13 104,-182 104,-182 104,-182 943.22,-182 943.22,-182"/>
<polygon fill="black" stroke="black" points="943.22,-185.5 953.22,-182 943.22,-178.5 943.22,-185.5"/>
</g>
<!-- AppComponent  -->
<g id="node15" class="node">
<title>AppComponent </title>
<polygon fill="#80b1d3" stroke="black" points="1049.44,-252 940.56,-252 940.56,-216 1049.44,-216 1049.44,-252"/>
<text text-anchor="middle" x="995" y="-229.8" font-family="Times,serif" font-size="14.00">AppComponent </text>
</g>
<!-- AppModule&#45;&gt;AppComponent  -->
<g id="edge14" class="edge">
<title>AppModule&#45;&gt;AppComponent </title>
<path fill="none" stroke="black" stroke-dasharray="1,5" d="M995,-187.11C995,-187.11 995,-205.99 995,-205.99"/>
<polygon fill="black" stroke="black" points="991.5,-205.99 995,-215.99 998.5,-205.99 991.5,-205.99"/>
</g>
<!-- AppRoutingModule -->
<g id="node14" class="node">
<title>AppRoutingModule</title>
<polygon fill="#8dd3c7" stroke="black" points="1877.27,-122 1874.27,-126 1853.27,-126 1850.27,-122 1748.73,-122 1748.73,-86 1877.27,-86 1877.27,-122"/>
<text text-anchor="middle" x="1813" y="-99.8" font-family="Times,serif" font-size="14.00">AppRoutingModule</text>
</g>
<!-- AppRoutingModule&#45;&gt;AppModule -->
<g id="edge13" class="edge">
<title>AppRoutingModule&#45;&gt;AppModule</title>
<path fill="none" stroke="black" d="M1813,-122.09C1813,-145.13 1813,-182 1813,-182 1813,-182 1046.69,-182 1046.69,-182"/>
<polygon fill="black" stroke="black" points="1046.69,-178.5 1036.69,-182 1046.69,-185.5 1046.69,-178.5"/>
</g>
</g>
</svg>
