<?xml version="1.0" encoding="UTF-8" standalone="no"?>
<!DOCTYPE svg PUBLIC "-//W3C//DTD SVG 1.1//EN"
 "http://www.w3.org/Graphics/SVG/1.1/DTD/svg11.dtd">
<!-- Generated by graphviz version 2.46.0 (20210119.1425)
 -->
<!-- Title: dependencies Pages: 1 -->
<svg width="1909pt" height="284pt"
 viewBox="0.00 0.00 1909.00 284.00" xmlns="http://www.w3.org/2000/svg" xmlns:xlink="http://www.w3.org/1999/xlink">
<g id="graph0" class="graph" transform="scale(1 1) rotate(0) translate(4 280)">
<title>dependencies</title>
<polygon fill="white" stroke="transparent" points="-4,4 -4,-280 1905,-280 1905,4 -4,4"/>
<text text-anchor="start" x="929.51" y="-42.4" font-family="sans-serif" font-weight="bold" font-size="14.00">Legend</text>
<polygon fill="#ffffb3" stroke="transparent" points="716.5,-10 716.5,-30 736.5,-30 736.5,-10 716.5,-10"/>
<text text-anchor="start" x="740.13" y="-15.4" font-family="sans-serif" font-size="14.00"> &#160;Declarations</text>
<polygon fill="#8dd3c7" stroke="transparent" points="829.5,-10 829.5,-30 849.5,-30 849.5,-10 829.5,-10"/>
<text text-anchor="start" x="853.23" y="-15.4" font-family="sans-serif" font-size="14.00"> &#160;Module</text>
<polygon fill="#80b1d3" stroke="transparent" points="915.5,-10 915.5,-30 935.5,-30 935.5,-10 915.5,-10"/>
<text text-anchor="start" x="939.28" y="-15.4" font-family="sans-serif" font-size="14.00"> &#160;Bootstrap</text>
<polygon fill="#fdb462" stroke="transparent" points="1012.5,-10 1012.5,-30 1032.5,-30 1032.5,-10 1012.5,-10"/>
<text text-anchor="start" x="1036.17" y="-15.4" font-family="sans-serif" font-size="14.00"> &#160;Providers</text>
<polygon fill="#fb8072" stroke="transparent" points="1108.5,-10 1108.5,-30 1128.5,-30 1128.5,-10 1108.5,-10"/>
<text text-anchor="start" x="1132.23" y="-15.4" font-family="sans-serif" font-size="14.00"> &#160;Exports</text>
<g id="clust1" class="cluster">
<title>cluster_AppModule</title>
<polygon fill="none" stroke="black" stroke-dasharray="1,5" points="8,-70 8,-268 1893,-268 1893,-70 8,-70"/>
</g>
<g id="clust2" class="cluster">
<title>cluster_AppModule_declarations</title>
<polygon fill="none" stroke="black" points="168,-78 168,-130 1885,-130 1885,-78 168,-78"/>
</g>
<g id="clust15" class="cluster">
<title>cluster_AppModule_imports</title>
<polygon fill="none" stroke="black" points="16,-78 16,-130 160,-130 160,-78 16,-78"/>
</g>
<g id="clust17" class="cluster">
<title>cluster_AppModule_bootstrap</title>
<polygon fill="none" stroke="black" points="944,-208 944,-260 1068,-260 1068,-208 944,-208"/>
</g>
<!-- AppComponent -->
<g id="node1" class="node">
<title>AppComponent</title>
<polygon fill="#ffffb3" stroke="black" points="1876.94,-122 1771.06,-122 1771.06,-86 1876.94,-86 1876.94,-122"/>
<text text-anchor="middle" x="1824" y="-99.8" font-family="Times,serif" font-size="14.00">AppComponent</text>
</g>
<!-- AppModule -->
<g id="node13" class="node">
<title>AppModule</title>
<polygon fill="#8dd3c7" stroke="black" points="1047.66,-187 1044.66,-191 1023.66,-191 1020.66,-187 964.34,-187 964.34,-151 1047.66,-151 1047.66,-187"/>
<text text-anchor="middle" x="1006" y="-164.8" font-family="Times,serif" font-size="14.00">AppModule</text>
</g>
<!-- AppComponent&#45;&gt;AppModule -->
<g id="edge1" class="edge">
<title>AppComponent&#45;&gt;AppModule</title>
<path fill="none" stroke="black" d="M1824,-122.09C1824,-145.13 1824,-182 1824,-182 1824,-182 1057.69,-182 1057.69,-182"/>
<polygon fill="black" stroke="black" points="1057.69,-178.5 1047.69,-182 1057.69,-185.5 1057.69,-178.5"/>
</g>
<!-- DashComponent -->
<g id="node2" class="node">
<title>DashComponent</title>
<polygon fill="#ffffb3" stroke="black" points="1753.1,-122 1642.9,-122 1642.9,-86 1753.1,-86 1753.1,-122"/>
<text text-anchor="middle" x="1698" y="-99.8" font-family="Times,serif" font-size="14.00">DashComponent</text>
</g>
<!-- DashComponent&#45;&gt;AppModule -->
<g id="edge2" class="edge">
<title>DashComponent&#45;&gt;AppModule</title>
<path fill="none" stroke="black" d="M1698,-122.04C1698,-143.66 1698,-177 1698,-177 1698,-177 1057.73,-177 1057.73,-177"/>
<polygon fill="black" stroke="black" points="1057.73,-173.5 1047.73,-177 1057.73,-180.5 1057.73,-173.5"/>
</g>
<!-- FooterComponent -->
<g id="node3" class="node">
<title>FooterComponent</title>
<polygon fill="#ffffb3" stroke="black" points="1624.88,-122 1507.12,-122 1507.12,-86 1624.88,-86 1624.88,-122"/>
<text text-anchor="middle" x="1566" y="-99.8" font-family="Times,serif" font-size="14.00">FooterComponent</text>
</g>
<!-- FooterComponent&#45;&gt;AppModule -->
<g id="edge3" class="edge">
<title>FooterComponent&#45;&gt;AppModule</title>
<path fill="none" stroke="black" d="M1566,-122.22C1566,-142.37 1566,-172 1566,-172 1566,-172 1058.09,-172 1058.09,-172"/>
<polygon fill="black" stroke="black" points="1058.09,-168.5 1048.09,-172 1058.09,-175.5 1058.09,-168.5"/>
</g>
<!-- HeaderComponent -->
<g id="node4" class="node">
<title>HeaderComponent</title>
<polygon fill="#ffffb3" stroke="black" points="1488.74,-122 1367.26,-122 1367.26,-86 1488.74,-86 1488.74,-122"/>
<text text-anchor="middle" x="1428" y="-99.8" font-family="Times,serif" font-size="14.00">HeaderComponent</text>
</g>
<!-- HeaderComponent&#45;&gt;AppModule -->
<g id="edge4" class="edge">
<title>HeaderComponent&#45;&gt;AppModule</title>
<path fill="none" stroke="black" d="M1428,-122.22C1428,-140.83 1428,-167 1428,-167 1428,-167 1058.01,-167 1058.01,-167"/>
<polygon fill="black" stroke="black" points="1058.01,-163.5 1048.01,-167 1058.01,-170.5 1058.01,-163.5"/>
</g>
<!-- Home2Component -->
<g id="node5" class="node">
<title>Home2Component</title>
<polygon fill="#ffffb3" stroke="black" points="1349.05,-122 1226.95,-122 1226.95,-86 1349.05,-86 1349.05,-122"/>
<text text-anchor="middle" x="1288" y="-99.8" font-family="Times,serif" font-size="14.00">Home2Component</text>
</g>
<!-- Home2Component&#45;&gt;AppModule -->
<g id="edge5" class="edge">
<title>Home2Component&#45;&gt;AppModule</title>
<path fill="none" stroke="black" d="M1288,-122.03C1288,-139.06 1288,-162 1288,-162 1288,-162 1057.91,-162 1057.91,-162"/>
<polygon fill="black" stroke="black" points="1057.91,-158.5 1047.91,-162 1057.91,-165.5 1057.91,-158.5"/>
</g>
<!-- Home3Component -->
<g id="node6" class="node">
<title>Home3Component</title>
<polygon fill="#ffffb3" stroke="black" points="1208.05,-122 1085.95,-122 1085.95,-86 1208.05,-86 1208.05,-122"/>
<text text-anchor="middle" x="1147" y="-99.8" font-family="Times,serif" font-size="14.00">Home3Component</text>
</g>
<!-- Home3Component&#45;&gt;AppModule -->
<g id="edge6" class="edge">
<title>Home3Component&#45;&gt;AppModule</title>
<path fill="none" stroke="black" d="M1147,-122.24C1147,-137.57 1147,-157 1147,-157 1147,-157 1057.92,-157 1057.92,-157"/>
<polygon fill="black" stroke="black" points="1057.92,-153.5 1047.92,-157 1057.92,-160.5 1057.92,-153.5"/>
</g>
<!-- Home4Component -->
<g id="node7" class="node">
<title>Home4Component</title>
<polygon fill="#ffffb3" stroke="black" points="1067.05,-122 944.95,-122 944.95,-86 1067.05,-86 1067.05,-122"/>
<text text-anchor="middle" x="1006" y="-99.8" font-family="Times,serif" font-size="14.00">Home4Component</text>
</g>
<!-- Home4Component&#45;&gt;AppModule -->
<g id="edge7" class="edge">
<title>Home4Component&#45;&gt;AppModule</title>
<path fill="none" stroke="black" d="M1006,-122.11C1006,-122.11 1006,-140.99 1006,-140.99"/>
<polygon fill="black" stroke="black" points="1002.5,-140.99 1006,-150.99 1009.5,-140.99 1002.5,-140.99"/>
</g>
<!-- Home5Component -->
<g id="node8" class="node">
<title>Home5Component</title>
<polygon fill="#ffffb3" stroke="black" points="926.05,-122 803.95,-122 803.95,-86 926.05,-86 926.05,-122"/>
<text text-anchor="middle" x="865" y="-99.8" font-family="Times,serif" font-size="14.00">Home5Component</text>
</g>
<!-- Home5Component&#45;&gt;AppModule -->
<g id="edge8" class="edge">
<title>Home5Component&#45;&gt;AppModule</title>
<path fill="none" stroke="black" d="M865,-122.24C865,-137.57 865,-157 865,-157 865,-157 954.08,-157 954.08,-157"/>
<polygon fill="black" stroke="black" points="954.08,-160.5 964.08,-157 954.08,-153.5 954.08,-160.5"/>
</g>
<!-- HomeComponent -->
<g id="node9" class="node">
<title>HomeComponent</title>
<polygon fill="#ffffb3" stroke="black" points="785.55,-122 670.45,-122 670.45,-86 785.55,-86 785.55,-122"/>
<text text-anchor="middle" x="728" y="-99.8" font-family="Times,serif" font-size="14.00">HomeComponent</text>
</g>
<!-- HomeComponent&#45;&gt;AppModule -->
<g id="edge9" class="edge">
<title>HomeComponent&#45;&gt;AppModule</title>
<path fill="none" stroke="black" d="M728,-122.03C728,-139.06 728,-162 728,-162 728,-162 954.08,-162 954.08,-162"/>
<polygon fill="black" stroke="black" points="954.08,-165.5 964.08,-162 954.08,-158.5 954.08,-165.5"/>
</g>
<!-- LoginComponent -->
<g id="node10" class="node">
<title>LoginComponent</title>
<polygon fill="#ffffb3" stroke="black" points="652.28,-122 537.72,-122 537.72,-86 652.28,-86 652.28,-122"/>
<text text-anchor="middle" x="595" y="-99.8" font-family="Times,serif" font-size="14.00">LoginComponent</text>
</g>
<!-- LoginComponent&#45;&gt;AppModule -->
<g id="edge10" class="edge">
<title>LoginComponent&#45;&gt;AppModule</title>
<path fill="none" stroke="black" d="M595,-122.22C595,-140.83 595,-167 595,-167 595,-167 954.33,-167 954.33,-167"/>
<polygon fill="black" stroke="black" points="954.33,-170.5 964.33,-167 954.33,-163.5 954.33,-170.5"/>
</g>
<!-- PageNotFoundComponent -->
<g id="node11" class="node">
<title>PageNotFoundComponent</title>
<polygon fill="#ffffb3" stroke="black" points="519.82,-122 354.18,-122 354.18,-86 519.82,-86 519.82,-122"/>
<text text-anchor="middle" x="437" y="-99.8" font-family="Times,serif" font-size="14.00">PageNotFoundComponent</text>
</g>
<!-- PageNotFoundComponent&#45;&gt;AppModule -->
<g id="edge11" class="edge">
<title>PageNotFoundComponent&#45;&gt;AppModule</title>
<path fill="none" stroke="black" d="M437,-122.22C437,-142.37 437,-172 437,-172 437,-172 954.16,-172 954.16,-172"/>
<polygon fill="black" stroke="black" points="954.16,-175.5 964.16,-172 954.16,-168.5 954.16,-175.5"/>
</g>
<!-- RecoveryPassComponent -->
<g id="node12" class="node">
<title>RecoveryPassComponent</title>
<polygon fill="#ffffb3" stroke="black" points="335.86,-122 176.14,-122 176.14,-86 335.86,-86 335.86,-122"/>
<text text-anchor="middle" x="256" y="-99.8" font-family="Times,serif" font-size="14.00">RecoveryPassComponent</text>
</g>
<!-- RecoveryPassComponent&#45;&gt;AppModule -->
<g id="edge12" class="edge">
<title>RecoveryPassComponent&#45;&gt;AppModule</title>
<path fill="none" stroke="black" d="M256,-122.04C256,-143.66 256,-177 256,-177 256,-177 954.34,-177 954.34,-177"/>
<polygon fill="black" stroke="black" points="954.34,-180.5 964.34,-177 954.34,-173.5 954.34,-180.5"/>
</g>
<!-- AppComponent  -->
<g id="node15" class="node">
<title>AppComponent </title>
<polygon fill="#80b1d3" stroke="black" points="1060.44,-252 951.56,-252 951.56,-216 1060.44,-216 1060.44,-252"/>
<text text-anchor="middle" x="1006" y="-229.8" font-family="Times,serif" font-size="14.00">AppComponent </text>
</g>
<!-- AppModule&#45;&gt;AppComponent  -->
<g id="edge14" class="edge">
<title>AppModule&#45;&gt;AppComponent </title>
<path fill="none" stroke="black" stroke-dasharray="1,5" d="M1006,-187.11C1006,-187.11 1006,-205.99 1006,-205.99"/>
<polygon fill="black" stroke="black" points="1002.5,-205.99 1006,-215.99 1009.5,-205.99 1002.5,-205.99"/>
</g>
<!-- AppRoutingModule -->
<g id="node14" class="node">
<title>AppRoutingModule</title>
<polygon fill="#8dd3c7" stroke="black" points="152.27,-122 149.27,-126 128.27,-126 125.27,-122 23.73,-122 23.73,-86 152.27,-86 152.27,-122"/>
<text text-anchor="middle" x="88" y="-99.8" font-family="Times,serif" font-size="14.00">AppRoutingModule</text>
</g>
<!-- AppRoutingModule&#45;&gt;AppModule -->
<g id="edge13" class="edge">
<title>AppRoutingModule&#45;&gt;AppModule</title>
<path fill="none" stroke="black" d="M88,-122.09C88,-145.13 88,-182 88,-182 88,-182 954.17,-182 954.17,-182"/>
<polygon fill="black" stroke="black" points="954.17,-185.5 964.17,-182 954.17,-178.5 954.17,-185.5"/>
</g>
</g>
</svg>
